<svg xmlns="http://www.w3.org/2000/svg" xml:space="preserve" xmlns:xlink="http://www.w3.org/1999/xlink" style="max-width: 100%;height: auto;" width="999" height="999" viewBox="0 0 999 999">
<rect width="999" height="999" fill="#ffffff" x="0" y="0"></rect>
    <g fill="#000000">
<g transform="translate(270,54) scale(4.635)"><rect width="6" height="6"></rect></g>
        <g transform="translate(297,54) scale(4.635)"><rect width="6" height="6"></rect></g>
        <g transform="translate(324,54) scale(4.635)"><rect width="6" height="6"></rect></g>
        <g transform="translate(486,54) scale(4.635)"><rect width="6" height="6"></rect></g>
        <g transform="translate(540,54) scale(4.635)"><rect width="6" height="6"></rect></g>
        <g transform="translate(567,54) scale(4.635)"><rect width="6" height="6"></rect></g>
        <g transform="translate(594,54) scale(4.635)"><rect width="6" height="6"></rect></g>
        <g transform="translate(675,54) scale(4.635)"><rect width="6" height="6"></rect></g>
        <g transform="translate(702,54) scale(4.635)"><rect width="6" height="6"></rect></g>
        <g transform="translate(270,81) scale(4.635)"><rect width="6" height="6"></rect></g>
        <g transform="translate(297,81) scale(4.635)"><rect width="6" height="6"></rect></g>
        <g transform="translate(324,81) scale(4.635)"><rect width="6" height="6"></rect></g>
        <g transform="translate(378,81) scale(4.635)"><rect width="6" height="6"></rect></g>
        <g transform="translate(405,81) scale(4.635)"><rect width="6" height="6"></rect></g>
        <g transform="translate(432,81) scale(4.635)"><rect width="6" height="6"></rect></g>
        <g transform="translate(486,81) scale(4.635)"><rect width="6" height="6"></rect></g>
        <g transform="translate(513,81) scale(4.635)"><rect width="6" height="6"></rect></g>
        <g transform="translate(567,81) scale(4.635)"><rect width="6" height="6"></rect></g>
        <g transform="translate(621,81) scale(4.635)"><rect width="6" height="6"></rect></g>
        <g transform="translate(648,81) scale(4.635)"><rect width="6" height="6"></rect></g>
        <g transform="translate(702,81) scale(4.635)"><rect width="6" height="6"></rect></g>
        <g transform="translate(270,108) scale(4.635)"><rect width="6" height="6"></rect></g>
        <g transform="translate(297,108) scale(4.635)"><rect width="6" height="6"></rect></g>
        <g transform="translate(378,108) scale(4.635)"><rect width="6" height="6"></rect></g>
        <g transform="translate(486,108) scale(4.635)"><rect width="6" height="6"></rect></g>
        <g transform="translate(513,108) scale(4.635)"><rect width="6" height="6"></rect></g>
        <g transform="translate(621,108) scale(4.635)"><rect width="6" height="6"></rect></g>
        <g transform="translate(648,108) scale(4.635)"><rect width="6" height="6"></rect></g>
        <g transform="translate(675,108) scale(4.635)"><rect width="6" height="6"></rect></g>
        <g transform="translate(702,108) scale(4.635)"><rect width="6" height="6"></rect></g>
        <g transform="translate(324,135) scale(4.635)"><rect width="6" height="6"></rect></g>
        <g transform="translate(378,135) scale(4.635)"><rect width="6" height="6"></rect></g>
        <g transform="translate(459,135) scale(4.635)"><rect width="6" height="6"></rect></g>
        <g transform="translate(486,135) scale(4.635)"><rect width="6" height="6"></rect></g>
        <g transform="translate(540,135) scale(4.635)"><rect width="6" height="6"></rect></g>
        <g transform="translate(567,135) scale(4.635)"><rect width="6" height="6"></rect></g>
        <g transform="translate(594,135) scale(4.635)"><rect width="6" height="6"></rect></g>
        <g transform="translate(648,135) scale(4.635)"><rect width="6" height="6"></rect></g>
        <g transform="translate(675,135) scale(4.635)"><rect width="6" height="6"></rect></g>
        <g transform="translate(702,135) scale(4.635)"><rect width="6" height="6"></rect></g>
        <g transform="translate(297,162) scale(4.635)"><rect width="6" height="6"></rect></g>
        <g transform="translate(405,162) scale(4.635)"><rect width="6" height="6"></rect></g>
        <g transform="translate(432,162) scale(4.635)"><rect width="6" height="6"></rect></g>
        <g transform="translate(459,162) scale(4.635)"><rect width="6" height="6"></rect></g>
        <g transform="translate(486,162) scale(4.635)"><rect width="6" height="6"></rect></g>
        <g transform="translate(594,162) scale(4.635)"><rect width="6" height="6"></rect></g>
        <g transform="translate(621,162) scale(4.635)"><rect width="6" height="6"></rect></g>
        <g transform="translate(702,162) scale(4.635)"><rect width="6" height="6"></rect></g>
        <g transform="translate(270,189) scale(4.635)"><rect width="6" height="6"></rect></g>
        <g transform="translate(324,189) scale(4.635)"><rect width="6" height="6"></rect></g>
        <g transform="translate(378,189) scale(4.635)"><rect width="6" height="6"></rect></g>
        <g transform="translate(405,189) scale(4.635)"><rect width="6" height="6"></rect></g>
        <g transform="translate(432,189) scale(4.635)"><rect width="6" height="6"></rect></g>
        <g transform="translate(513,189) scale(4.635)"><rect width="6" height="6"></rect></g>
        <g transform="translate(540,189) scale(4.635)"><rect width="6" height="6"></rect></g>
        <g transform="translate(621,189) scale(4.635)"><rect width="6" height="6"></rect></g>
        <g transform="translate(648,189) scale(4.635)"><rect width="6" height="6"></rect></g>
        <g transform="translate(270,216) scale(4.635)"><rect width="6" height="6"></rect></g>
        <g transform="translate(324,216) scale(4.635)"><rect width="6" height="6"></rect></g>
        <g transform="translate(378,216) scale(4.635)"><rect width="6" height="6"></rect></g>
        <g transform="translate(432,216) scale(4.635)"><rect width="6" height="6"></rect></g>
        <g transform="translate(486,216) scale(4.635)"><rect width="6" height="6"></rect></g>
        <g transform="translate(540,216) scale(4.635)"><rect width="6" height="6"></rect></g>
        <g transform="translate(594,216) scale(4.635)"><rect width="6" height="6"></rect></g>
        <g transform="translate(648,216) scale(4.635)"><rect width="6" height="6"></rect></g>
        <g transform="translate(702,216) scale(4.635)"><rect width="6" height="6"></rect></g>
        <g transform="translate(270,243) scale(4.635)"><rect width="6" height="6"></rect></g>
        <g transform="translate(324,243) scale(4.635)"><rect width="6" height="6"></rect></g>
        <g transform="translate(351,243) scale(4.635)"><rect width="6" height="6"></rect></g>
        <g transform="translate(459,243) scale(4.635)"><rect width="6" height="6"></rect></g>
        <g transform="translate(486,243) scale(4.635)"><rect width="6" height="6"></rect></g>
        <g transform="translate(513,243) scale(4.635)"><rect width="6" height="6"></rect></g>
        <g transform="translate(540,243) scale(4.635)"><rect width="6" height="6"></rect></g>
        <g transform="translate(621,243) scale(4.635)"><rect width="6" height="6"></rect></g>
        <g transform="translate(648,243) scale(4.635)"><rect width="6" height="6"></rect></g>
        <g transform="translate(675,243) scale(4.635)"><rect width="6" height="6"></rect></g>
        <g transform="translate(108,270) scale(4.635)"><rect width="6" height="6"></rect></g>
        <g transform="translate(135,270) scale(4.635)"><rect width="6" height="6"></rect></g>
        <g transform="translate(162,270) scale(4.635)"><rect width="6" height="6"></rect></g>
        <g transform="translate(216,270) scale(4.635)"><rect width="6" height="6"></rect></g>
        <g transform="translate(270,270) scale(4.635)"><rect width="6" height="6"></rect></g>
        <g transform="translate(297,270) scale(4.635)"><rect width="6" height="6"></rect></g>
        <g transform="translate(324,270) scale(4.635)"><rect width="6" height="6"></rect></g>
        <g transform="translate(351,270) scale(4.635)"><rect width="6" height="6"></rect></g>
        <g transform="translate(378,270) scale(4.635)"><rect width="6" height="6"></rect></g>
        <g transform="translate(513,270) scale(4.635)"><rect width="6" height="6"></rect></g>
        <g transform="translate(540,270) scale(4.635)"><rect width="6" height="6"></rect></g>
        <g transform="translate(567,270) scale(4.635)"><rect width="6" height="6"></rect></g>
        <g transform="translate(594,270) scale(4.635)"><rect width="6" height="6"></rect></g>
        <g transform="translate(648,270) scale(4.635)"><rect width="6" height="6"></rect></g>
        <g transform="translate(675,270) scale(4.635)"><rect width="6" height="6"></rect></g>
        <g transform="translate(702,270) scale(4.635)"><rect width="6" height="6"></rect></g>
        <g transform="translate(729,270) scale(4.635)"><rect width="6" height="6"></rect></g>
        <g transform="translate(756,270) scale(4.635)"><rect width="6" height="6"></rect></g>
        <g transform="translate(783,270) scale(4.635)"><rect width="6" height="6"></rect></g>
        <g transform="translate(864,270) scale(4.635)"><rect width="6" height="6"></rect></g>
        <g transform="translate(891,270) scale(4.635)"><rect width="6" height="6"></rect></g>
        <g transform="translate(918,270) scale(4.635)"><rect width="6" height="6"></rect></g>
        <g transform="translate(54,297) scale(4.635)"><rect width="6" height="6"></rect></g>
        <g transform="translate(243,297) scale(4.635)"><rect width="6" height="6"></rect></g>
        <g transform="translate(270,297) scale(4.635)"><rect width="6" height="6"></rect></g>
        <g transform="translate(351,297) scale(4.635)"><rect width="6" height="6"></rect></g>
        <g transform="translate(405,297) scale(4.635)"><rect width="6" height="6"></rect></g>
        <g transform="translate(432,297) scale(4.635)"><rect width="6" height="6"></rect></g>
        <g transform="translate(459,297) scale(4.635)"><rect width="6" height="6"></rect></g>
        <g transform="translate(486,297) scale(4.635)"><rect width="6" height="6"></rect></g>
        <g transform="translate(540,297) scale(4.635)"><rect width="6" height="6"></rect></g>
        <g transform="translate(594,297) scale(4.635)"><rect width="6" height="6"></rect></g>
        <g transform="translate(648,297) scale(4.635)"><rect width="6" height="6"></rect></g>
        <g transform="translate(675,297) scale(4.635)"><rect width="6" height="6"></rect></g>
        <g transform="translate(729,297) scale(4.635)"><rect width="6" height="6"></rect></g>
        <g transform="translate(756,297) scale(4.635)"><rect width="6" height="6"></rect></g>
        <g transform="translate(918,297) scale(4.635)"><rect width="6" height="6"></rect></g>
        <g transform="translate(54,324) scale(4.635)"><rect width="6" height="6"></rect></g>
        <g transform="translate(135,324) scale(4.635)"><rect width="6" height="6"></rect></g>
        <g transform="translate(189,324) scale(4.635)"><rect width="6" height="6"></rect></g>
        <g transform="translate(216,324) scale(4.635)"><rect width="6" height="6"></rect></g>
        <g transform="translate(243,324) scale(4.635)"><rect width="6" height="6"></rect></g>
        <g transform="translate(270,324) scale(4.635)"><rect width="6" height="6"></rect></g>
        <g transform="translate(324,324) scale(4.635)"><rect width="6" height="6"></rect></g>
        <g transform="translate(405,324) scale(4.635)"><rect width="6" height="6"></rect></g>
        <g transform="translate(432,324) scale(4.635)"><rect width="6" height="6"></rect></g>
        <g transform="translate(459,324) scale(4.635)"><rect width="6" height="6"></rect></g>
        <g transform="translate(513,324) scale(4.635)"><rect width="6" height="6"></rect></g>
        <g transform="translate(540,324) scale(4.635)"><rect width="6" height="6"></rect></g>
        <g transform="translate(648,324) scale(4.635)"><rect width="6" height="6"></rect></g>
        <g transform="translate(702,324) scale(4.635)"><rect width="6" height="6"></rect></g>
        <g transform="translate(729,324) scale(4.635)"><rect width="6" height="6"></rect></g>
        <g transform="translate(756,324) scale(4.635)"><rect width="6" height="6"></rect></g>
        <g transform="translate(783,324) scale(4.635)"><rect width="6" height="6"></rect></g>
        <g transform="translate(891,324) scale(4.635)"><rect width="6" height="6"></rect></g>
        <g transform="translate(81,351) scale(4.635)"><rect width="6" height="6"></rect></g>
        <g transform="translate(108,351) scale(4.635)"><rect width="6" height="6"></rect></g>
        <g transform="translate(135,351) scale(4.635)"><rect width="6" height="6"></rect></g>
        <g transform="translate(189,351) scale(4.635)"><rect width="6" height="6"></rect></g>
        <g transform="translate(432,351) scale(4.635)"><rect width="6" height="6"></rect></g>
        <g transform="translate(459,351) scale(4.635)"><rect width="6" height="6"></rect></g>
        <g transform="translate(486,351) scale(4.635)"><rect width="6" height="6"></rect></g>
        <g transform="translate(513,351) scale(4.635)"><rect width="6" height="6"></rect></g>
        <g transform="translate(756,351) scale(4.635)"><rect width="6" height="6"></rect></g>
        <g transform="translate(837,351) scale(4.635)"><rect width="6" height="6"></rect></g>
        <g transform="translate(864,351) scale(4.635)"><rect width="6" height="6"></rect></g>
        <g transform="translate(891,351) scale(4.635)"><rect width="6" height="6"></rect></g>
        <g transform="translate(918,351) scale(4.635)"><rect width="6" height="6"></rect></g>
        <g transform="translate(162,378) scale(4.635)"><rect width="6" height="6"></rect></g>
        <g transform="translate(189,378) scale(4.635)"><rect width="6" height="6"></rect></g>
        <g transform="translate(216,378) scale(4.635)"><rect width="6" height="6"></rect></g>
        <g transform="translate(297,378) scale(4.635)"><rect width="6" height="6"></rect></g>
        <g transform="translate(351,378) scale(4.635)"><rect width="6" height="6"></rect></g>
        <g transform="translate(378,378) scale(4.635)"><rect width="6" height="6"></rect></g>
        <g transform="translate(432,378) scale(4.635)"><rect width="6" height="6"></rect></g>
        <g transform="translate(459,378) scale(4.635)"><rect width="6" height="6"></rect></g>
        <g transform="translate(594,378) scale(4.635)"><rect width="6" height="6"></rect></g>
        <g transform="translate(621,378) scale(4.635)"><rect width="6" height="6"></rect></g>
        <g transform="translate(648,378) scale(4.635)"><rect width="6" height="6"></rect></g>
        <g transform="translate(702,378) scale(4.635)"><rect width="6" height="6"></rect></g>
        <g transform="translate(729,378) scale(4.635)"><rect width="6" height="6"></rect></g>
        <g transform="translate(783,378) scale(4.635)"><rect width="6" height="6"></rect></g>
        <g transform="translate(810,378) scale(4.635)"><rect width="6" height="6"></rect></g>
        <g transform="translate(189,405) scale(4.635)"><rect width="6" height="6"></rect></g>
        <g transform="translate(513,405) scale(4.635)"><rect width="6" height="6"></rect></g>
        <g transform="translate(675,405) scale(4.635)"><rect width="6" height="6"></rect></g>
        <g transform="translate(756,405) scale(4.635)"><rect width="6" height="6"></rect></g>
        <g transform="translate(837,405) scale(4.635)"><rect width="6" height="6"></rect></g>
        <g transform="translate(864,405) scale(4.635)"><rect width="6" height="6"></rect></g>
        <g transform="translate(918,405) scale(4.635)"><rect width="6" height="6"></rect></g>
        <g transform="translate(81,432) scale(4.635)"><rect width="6" height="6"></rect></g>
        <g transform="translate(108,432) scale(4.635)"><rect width="6" height="6"></rect></g>
        <g transform="translate(135,432) scale(4.635)"><rect width="6" height="6"></rect></g>
        <g transform="translate(162,432) scale(4.635)"><rect width="6" height="6"></rect></g>
        <g transform="translate(189,432) scale(4.635)"><rect width="6" height="6"></rect></g>
        <g transform="translate(216,432) scale(4.635)"><rect width="6" height="6"></rect></g>
        <g transform="translate(243,432) scale(4.635)"><rect width="6" height="6"></rect></g>
        <g transform="translate(270,432) scale(4.635)"><rect width="6" height="6"></rect></g>
        <g transform="translate(351,432) scale(4.635)"><rect width="6" height="6"></rect></g>
        <g transform="translate(378,432) scale(4.635)"><rect width="6" height="6"></rect></g>
        <g transform="translate(432,432) scale(4.635)"><rect width="6" height="6"></rect></g>
        <g transform="translate(486,432) scale(4.635)"><rect width="6" height="6"></rect></g>
        <g transform="translate(567,432) scale(4.635)"><rect width="6" height="6"></rect></g>
        <g transform="translate(594,432) scale(4.635)"><rect width="6" height="6"></rect></g>
        <g transform="translate(648,432) scale(4.635)"><rect width="6" height="6"></rect></g>
        <g transform="translate(783,432) scale(4.635)"><rect width="6" height="6"></rect></g>
        <g transform="translate(810,432) scale(4.635)"><rect width="6" height="6"></rect></g>
        <g transform="translate(837,432) scale(4.635)"><rect width="6" height="6"></rect></g>
        <g transform="translate(864,432) scale(4.635)"><rect width="6" height="6"></rect></g>
        <g transform="translate(891,432) scale(4.635)"><rect width="6" height="6"></rect></g>
        <g transform="translate(54,459) scale(4.635)"><rect width="6" height="6"></rect></g>
        <g transform="translate(189,459) scale(4.635)"><rect width="6" height="6"></rect></g>
        <g transform="translate(324,459) scale(4.635)"><rect width="6" height="6"></rect></g>
        <g transform="translate(351,459) scale(4.635)"><rect width="6" height="6"></rect></g>
        <g transform="translate(378,459) scale(4.635)"><rect width="6" height="6"></rect></g>
        <g transform="translate(405,459) scale(4.635)"><rect width="6" height="6"></rect></g>
        <g transform="translate(432,459) scale(4.635)"><rect width="6" height="6"></rect></g>
        <g transform="translate(459,459) scale(4.635)"><rect width="6" height="6"></rect></g>
        <g transform="translate(486,459) scale(4.635)"><rect width="6" height="6"></rect></g>
        <g transform="translate(540,459) scale(4.635)"><rect width="6" height="6"></rect></g>
        <g transform="translate(567,459) scale(4.635)"><rect width="6" height="6"></rect></g>
        <g transform="translate(621,459) scale(4.635)"><rect width="6" height="6"></rect></g>
        <g transform="translate(648,459) scale(4.635)"><rect width="6" height="6"></rect></g>
        <g transform="translate(729,459) scale(4.635)"><rect width="6" height="6"></rect></g>
        <g transform="translate(756,459) scale(4.635)"><rect width="6" height="6"></rect></g>
        <g transform="translate(810,459) scale(4.635)"><rect width="6" height="6"></rect></g>
        <g transform="translate(837,459) scale(4.635)"><rect width="6" height="6"></rect></g>
        <g transform="translate(864,459) scale(4.635)"><rect width="6" height="6"></rect></g>
        <g transform="translate(54,486) scale(4.635)"><rect width="6" height="6"></rect></g>
        <g transform="translate(81,486) scale(4.635)"><rect width="6" height="6"></rect></g>
        <g transform="translate(135,486) scale(4.635)"><rect width="6" height="6"></rect></g>
        <g transform="translate(216,486) scale(4.635)"><rect width="6" height="6"></rect></g>
        <g transform="translate(432,486) scale(4.635)"><rect width="6" height="6"></rect></g>
        <g transform="translate(459,486) scale(4.635)"><rect width="6" height="6"></rect></g>
        <g transform="translate(567,486) scale(4.635)"><rect width="6" height="6"></rect></g>
        <g transform="translate(594,486) scale(4.635)"><rect width="6" height="6"></rect></g>
        <g transform="translate(729,486) scale(4.635)"><rect width="6" height="6"></rect></g>
        <g transform="translate(810,486) scale(4.635)"><rect width="6" height="6"></rect></g>
        <g transform="translate(837,486) scale(4.635)"><rect width="6" height="6"></rect></g>
        <g transform="translate(81,513) scale(4.635)"><rect width="6" height="6"></rect></g>
        <g transform="translate(108,513) scale(4.635)"><rect width="6" height="6"></rect></g>
        <g transform="translate(135,513) scale(4.635)"><rect width="6" height="6"></rect></g>
        <g transform="translate(243,513) scale(4.635)"><rect width="6" height="6"></rect></g>
        <g transform="translate(297,513) scale(4.635)"><rect width="6" height="6"></rect></g>
        <g transform="translate(324,513) scale(4.635)"><rect width="6" height="6"></rect></g>
        <g transform="translate(351,513) scale(4.635)"><rect width="6" height="6"></rect></g>
        <g transform="translate(405,513) scale(4.635)"><rect width="6" height="6"></rect></g>
        <g transform="translate(459,513) scale(4.635)"><rect width="6" height="6"></rect></g>
        <g transform="translate(675,513) scale(4.635)"><rect width="6" height="6"></rect></g>
        <g transform="translate(702,513) scale(4.635)"><rect width="6" height="6"></rect></g>
        <g transform="translate(756,513) scale(4.635)"><rect width="6" height="6"></rect></g>
        <g transform="translate(918,513) scale(4.635)"><rect width="6" height="6"></rect></g>
        <g transform="translate(81,540) scale(4.635)"><rect width="6" height="6"></rect></g>
        <g transform="translate(108,540) scale(4.635)"><rect width="6" height="6"></rect></g>
        <g transform="translate(135,540) scale(4.635)"><rect width="6" height="6"></rect></g>
        <g transform="translate(216,540) scale(4.635)"><rect width="6" height="6"></rect></g>
        <g transform="translate(243,540) scale(4.635)"><rect width="6" height="6"></rect></g>
        <g transform="translate(270,540) scale(4.635)"><rect width="6" height="6"></rect></g>
        <g transform="translate(378,540) scale(4.635)"><rect width="6" height="6"></rect></g>
        <g transform="translate(432,540) scale(4.635)"><rect width="6" height="6"></rect></g>
        <g transform="translate(486,540) scale(4.635)"><rect width="6" height="6"></rect></g>
        <g transform="translate(648,540) scale(4.635)"><rect width="6" height="6"></rect></g>
        <g transform="translate(783,540) scale(4.635)"><rect width="6" height="6"></rect></g>
        <g transform="translate(864,540) scale(4.635)"><rect width="6" height="6"></rect></g>
        <g transform="translate(891,540) scale(4.635)"><rect width="6" height="6"></rect></g>
        <g transform="translate(81,567) scale(4.635)"><rect width="6" height="6"></rect></g>
        <g transform="translate(135,567) scale(4.635)"><rect width="6" height="6"></rect></g>
        <g transform="translate(189,567) scale(4.635)"><rect width="6" height="6"></rect></g>
        <g transform="translate(324,567) scale(4.635)"><rect width="6" height="6"></rect></g>
        <g transform="translate(378,567) scale(4.635)"><rect width="6" height="6"></rect></g>
        <g transform="translate(513,567) scale(4.635)"><rect width="6" height="6"></rect></g>
        <g transform="translate(540,567) scale(4.635)"><rect width="6" height="6"></rect></g>
        <g transform="translate(567,567) scale(4.635)"><rect width="6" height="6"></rect></g>
        <g transform="translate(621,567) scale(4.635)"><rect width="6" height="6"></rect></g>
        <g transform="translate(648,567) scale(4.635)"><rect width="6" height="6"></rect></g>
        <g transform="translate(675,567) scale(4.635)"><rect width="6" height="6"></rect></g>
        <g transform="translate(702,567) scale(4.635)"><rect width="6" height="6"></rect></g>
        <g transform="translate(756,567) scale(4.635)"><rect width="6" height="6"></rect></g>
        <g transform="translate(837,567) scale(4.635)"><rect width="6" height="6"></rect></g>
        <g transform="translate(864,567) scale(4.635)"><rect width="6" height="6"></rect></g>
        <g transform="translate(891,567) scale(4.635)"><rect width="6" height="6"></rect></g>
        <g transform="translate(81,594) scale(4.635)"><rect width="6" height="6"></rect></g>
        <g transform="translate(135,594) scale(4.635)"><rect width="6" height="6"></rect></g>
        <g transform="translate(162,594) scale(4.635)"><rect width="6" height="6"></rect></g>
        <g transform="translate(216,594) scale(4.635)"><rect width="6" height="6"></rect></g>
        <g transform="translate(243,594) scale(4.635)"><rect width="6" height="6"></rect></g>
        <g transform="translate(270,594) scale(4.635)"><rect width="6" height="6"></rect></g>
        <g transform="translate(297,594) scale(4.635)"><rect width="6" height="6"></rect></g>
        <g transform="translate(324,594) scale(4.635)"><rect width="6" height="6"></rect></g>
        <g transform="translate(702,594) scale(4.635)"><rect width="6" height="6"></rect></g>
        <g transform="translate(729,594) scale(4.635)"><rect width="6" height="6"></rect></g>
        <g transform="translate(783,594) scale(4.635)"><rect width="6" height="6"></rect></g>
        <g transform="translate(810,594) scale(4.635)"><rect width="6" height="6"></rect></g>
        <g transform="translate(837,594) scale(4.635)"><rect width="6" height="6"></rect></g>
        <g transform="translate(891,594) scale(4.635)"><rect width="6" height="6"></rect></g>
        <g transform="translate(918,594) scale(4.635)"><rect width="6" height="6"></rect></g>
        <g transform="translate(54,621) scale(4.635)"><rect width="6" height="6"></rect></g>
        <g transform="translate(81,621) scale(4.635)"><rect width="6" height="6"></rect></g>
        <g transform="translate(108,621) scale(4.635)"><rect width="6" height="6"></rect></g>
        <g transform="translate(162,621) scale(4.635)"><rect width="6" height="6"></rect></g>
        <g transform="translate(189,621) scale(4.635)"><rect width="6" height="6"></rect></g>
        <g transform="translate(243,621) scale(4.635)"><rect width="6" height="6"></rect></g>
        <g transform="translate(270,621) scale(4.635)"><rect width="6" height="6"></rect></g>
        <g transform="translate(351,621) scale(4.635)"><rect width="6" height="6"></rect></g>
        <g transform="translate(378,621) scale(4.635)"><rect width="6" height="6"></rect></g>
        <g transform="translate(486,621) scale(4.635)"><rect width="6" height="6"></rect></g>
        <g transform="translate(513,621) scale(4.635)"><rect width="6" height="6"></rect></g>
        <g transform="translate(540,621) scale(4.635)"><rect width="6" height="6"></rect></g>
        <g transform="translate(567,621) scale(4.635)"><rect width="6" height="6"></rect></g>
        <g transform="translate(594,621) scale(4.635)"><rect width="6" height="6"></rect></g>
        <g transform="translate(621,621) scale(4.635)"><rect width="6" height="6"></rect></g>
        <g transform="translate(675,621) scale(4.635)"><rect width="6" height="6"></rect></g>
        <g transform="translate(702,621) scale(4.635)"><rect width="6" height="6"></rect></g>
        <g transform="translate(756,621) scale(4.635)"><rect width="6" height="6"></rect></g>
        <g transform="translate(783,621) scale(4.635)"><rect width="6" height="6"></rect></g>
        <g transform="translate(837,621) scale(4.635)"><rect width="6" height="6"></rect></g>
        <g transform="translate(864,621) scale(4.635)"><rect width="6" height="6"></rect></g>
        <g transform="translate(918,621) scale(4.635)"><rect width="6" height="6"></rect></g>
        <g transform="translate(54,648) scale(4.635)"><rect width="6" height="6"></rect></g>
        <g transform="translate(108,648) scale(4.635)"><rect width="6" height="6"></rect></g>
        <g transform="translate(135,648) scale(4.635)"><rect width="6" height="6"></rect></g>
        <g transform="translate(162,648) scale(4.635)"><rect width="6" height="6"></rect></g>
        <g transform="translate(189,648) scale(4.635)"><rect width="6" height="6"></rect></g>
        <g transform="translate(216,648) scale(4.635)"><rect width="6" height="6"></rect></g>
        <g transform="translate(243,648) scale(4.635)"><rect width="6" height="6"></rect></g>
        <g transform="translate(378,648) scale(4.635)"><rect width="6" height="6"></rect></g>
        <g transform="translate(405,648) scale(4.635)"><rect width="6" height="6"></rect></g>
        <g transform="translate(486,648) scale(4.635)"><rect width="6" height="6"></rect></g>
        <g transform="translate(567,648) scale(4.635)"><rect width="6" height="6"></rect></g>
        <g transform="translate(594,648) scale(4.635)"><rect width="6" height="6"></rect></g>
        <g transform="translate(783,648) scale(4.635)"><rect width="6" height="6"></rect></g>
        <g transform="translate(810,648) scale(4.635)"><rect width="6" height="6"></rect></g>
        <g transform="translate(837,648) scale(4.635)"><rect width="6" height="6"></rect></g>
        <g transform="translate(891,648) scale(4.635)"><rect width="6" height="6"></rect></g>
        <g transform="translate(54,675) scale(4.635)"><rect width="6" height="6"></rect></g>
        <g transform="translate(135,675) scale(4.635)"><rect width="6" height="6"></rect></g>
        <g transform="translate(189,675) scale(4.635)"><rect width="6" height="6"></rect></g>
        <g transform="translate(270,675) scale(4.635)"><rect width="6" height="6"></rect></g>
        <g transform="translate(324,675) scale(4.635)"><rect width="6" height="6"></rect></g>
        <g transform="translate(405,675) scale(4.635)"><rect width="6" height="6"></rect></g>
        <g transform="translate(486,675) scale(4.635)"><rect width="6" height="6"></rect></g>
        <g transform="translate(513,675) scale(4.635)"><rect width="6" height="6"></rect></g>
        <g transform="translate(540,675) scale(4.635)"><rect width="6" height="6"></rect></g>
        <g transform="translate(594,675) scale(4.635)"><rect width="6" height="6"></rect></g>
        <g transform="translate(621,675) scale(4.635)"><rect width="6" height="6"></rect></g>
        <g transform="translate(648,675) scale(4.635)"><rect width="6" height="6"></rect></g>
        <g transform="translate(837,675) scale(4.635)"><rect width="6" height="6"></rect></g>
        <g transform="translate(864,675) scale(4.635)"><rect width="6" height="6"></rect></g>
        <g transform="translate(918,675) scale(4.635)"><rect width="6" height="6"></rect></g>
        <g transform="translate(54,702) scale(4.635)"><rect width="6" height="6"></rect></g>
        <g transform="translate(135,702) scale(4.635)"><rect width="6" height="6"></rect></g>
        <g transform="translate(189,702) scale(4.635)"><rect width="6" height="6"></rect></g>
        <g transform="translate(216,702) scale(4.635)"><rect width="6" height="6"></rect></g>
        <g transform="translate(297,702) scale(4.635)"><rect width="6" height="6"></rect></g>
        <g transform="translate(351,702) scale(4.635)"><rect width="6" height="6"></rect></g>
        <g transform="translate(486,702) scale(4.635)"><rect width="6" height="6"></rect></g>
        <g transform="translate(540,702) scale(4.635)"><rect width="6" height="6"></rect></g>
        <g transform="translate(648,702) scale(4.635)"><rect width="6" height="6"></rect></g>
        <g transform="translate(702,702) scale(4.635)"><rect width="6" height="6"></rect></g>
        <g transform="translate(729,702) scale(4.635)"><rect width="6" height="6"></rect></g>
        <g transform="translate(756,702) scale(4.635)"><rect width="6" height="6"></rect></g>
        <g transform="translate(783,702) scale(4.635)"><rect width="6" height="6"></rect></g>
        <g transform="translate(810,702) scale(4.635)"><rect width="6" height="6"></rect></g>
        <g transform="translate(891,702) scale(4.635)"><rect width="6" height="6"></rect></g>
        <g transform="translate(918,702) scale(4.635)"><rect width="6" height="6"></rect></g>
        <g transform="translate(270,729) scale(4.635)"><rect width="6" height="6"></rect></g>
        <g transform="translate(324,729) scale(4.635)"><rect width="6" height="6"></rect></g>
        <g transform="translate(351,729) scale(4.635)"><rect width="6" height="6"></rect></g>
        <g transform="translate(378,729) scale(4.635)"><rect width="6" height="6"></rect></g>
        <g transform="translate(405,729) scale(4.635)"><rect width="6" height="6"></rect></g>
        <g transform="translate(459,729) scale(4.635)"><rect width="6" height="6"></rect></g>
        <g transform="translate(486,729) scale(4.635)"><rect width="6" height="6"></rect></g>
        <g transform="translate(594,729) scale(4.635)"><rect width="6" height="6"></rect></g>
        <g transform="translate(621,729) scale(4.635)"><rect width="6" height="6"></rect></g>
        <g transform="translate(702,729) scale(4.635)"><rect width="6" height="6"></rect></g>
        <g transform="translate(810,729) scale(4.635)"><rect width="6" height="6"></rect></g>
        <g transform="translate(891,729) scale(4.635)"><rect width="6" height="6"></rect></g>
        <g transform="translate(918,729) scale(4.635)"><rect width="6" height="6"></rect></g>
        <g transform="translate(297,756) scale(4.635)"><rect width="6" height="6"></rect></g>
        <g transform="translate(324,756) scale(4.635)"><rect width="6" height="6"></rect></g>
        <g transform="translate(351,756) scale(4.635)"><rect width="6" height="6"></rect></g>
        <g transform="translate(378,756) scale(4.635)"><rect width="6" height="6"></rect></g>
        <g transform="translate(567,756) scale(4.635)"><rect width="6" height="6"></rect></g>
        <g transform="translate(621,756) scale(4.635)"><rect width="6" height="6"></rect></g>
        <g transform="translate(675,756) scale(4.635)"><rect width="6" height="6"></rect></g>
        <g transform="translate(702,756) scale(4.635)"><rect width="6" height="6"></rect></g>
        <g transform="translate(756,756) scale(4.635)"><rect width="6" height="6"></rect></g>
        <g transform="translate(810,756) scale(4.635)"><rect width="6" height="6"></rect></g>
        <g transform="translate(837,756) scale(4.635)"><rect width="6" height="6"></rect></g>
        <g transform="translate(864,756) scale(4.635)"><rect width="6" height="6"></rect></g>
        <g transform="translate(891,756) scale(4.635)"><rect width="6" height="6"></rect></g>
        <g transform="translate(297,783) scale(4.635)"><rect width="6" height="6"></rect></g>
        <g transform="translate(378,783) scale(4.635)"><rect width="6" height="6"></rect></g>
        <g transform="translate(405,783) scale(4.635)"><rect width="6" height="6"></rect></g>
        <g transform="translate(432,783) scale(4.635)"><rect width="6" height="6"></rect></g>
        <g transform="translate(486,783) scale(4.635)"><rect width="6" height="6"></rect></g>
        <g transform="translate(594,783) scale(4.635)"><rect width="6" height="6"></rect></g>
        <g transform="translate(621,783) scale(4.635)"><rect width="6" height="6"></rect></g>
        <g transform="translate(648,783) scale(4.635)"><rect width="6" height="6"></rect></g>
        <g transform="translate(675,783) scale(4.635)"><rect width="6" height="6"></rect></g>
        <g transform="translate(702,783) scale(4.635)"><rect width="6" height="6"></rect></g>
        <g transform="translate(810,783) scale(4.635)"><rect width="6" height="6"></rect></g>
        <g transform="translate(837,783) scale(4.635)"><rect width="6" height="6"></rect></g>
        <g transform="translate(864,783) scale(4.635)"><rect width="6" height="6"></rect></g>
        <g transform="translate(891,783) scale(4.635)"><rect width="6" height="6"></rect></g>
        <g transform="translate(918,783) scale(4.635)"><rect width="6" height="6"></rect></g>
        <g transform="translate(270,810) scale(4.635)"><rect width="6" height="6"></rect></g>
        <g transform="translate(378,810) scale(4.635)"><rect width="6" height="6"></rect></g>
        <g transform="translate(540,810) scale(4.635)"><rect width="6" height="6"></rect></g>
        <g transform="translate(621,810) scale(4.635)"><rect width="6" height="6"></rect></g>
        <g transform="translate(702,810) scale(4.635)"><rect width="6" height="6"></rect></g>
        <g transform="translate(729,810) scale(4.635)"><rect width="6" height="6"></rect></g>
        <g transform="translate(756,810) scale(4.635)"><rect width="6" height="6"></rect></g>
        <g transform="translate(783,810) scale(4.635)"><rect width="6" height="6"></rect></g>
        <g transform="translate(810,810) scale(4.635)"><rect width="6" height="6"></rect></g>
        <g transform="translate(837,810) scale(4.635)"><rect width="6" height="6"></rect></g>
        <g transform="translate(891,810) scale(4.635)"><rect width="6" height="6"></rect></g>
        <g transform="translate(918,810) scale(4.635)"><rect width="6" height="6"></rect></g>
        <g transform="translate(270,837) scale(4.635)"><rect width="6" height="6"></rect></g>
        <g transform="translate(324,837) scale(4.635)"><rect width="6" height="6"></rect></g>
        <g transform="translate(351,837) scale(4.635)"><rect width="6" height="6"></rect></g>
        <g transform="translate(378,837) scale(4.635)"><rect width="6" height="6"></rect></g>
        <g transform="translate(432,837) scale(4.635)"><rect width="6" height="6"></rect></g>
        <g transform="translate(459,837) scale(4.635)"><rect width="6" height="6"></rect></g>
        <g transform="translate(486,837) scale(4.635)"><rect width="6" height="6"></rect></g>
        <g transform="translate(513,837) scale(4.635)"><rect width="6" height="6"></rect></g>
        <g transform="translate(594,837) scale(4.635)"><rect width="6" height="6"></rect></g>
        <g transform="translate(621,837) scale(4.635)"><rect width="6" height="6"></rect></g>
        <g transform="translate(648,837) scale(4.635)"><rect width="6" height="6"></rect></g>
        <g transform="translate(675,837) scale(4.635)"><rect width="6" height="6"></rect></g>
        <g transform="translate(702,837) scale(4.635)"><rect width="6" height="6"></rect></g>
        <g transform="translate(729,837) scale(4.635)"><rect width="6" height="6"></rect></g>
        <g transform="translate(810,837) scale(4.635)"><rect width="6" height="6"></rect></g>
        <g transform="translate(837,837) scale(4.635)"><rect width="6" height="6"></rect></g>
        <g transform="translate(864,837) scale(4.635)"><rect width="6" height="6"></rect></g>
        <g transform="translate(918,837) scale(4.635)"><rect width="6" height="6"></rect></g>
        <g transform="translate(270,864) scale(4.635)"><rect width="6" height="6"></rect></g>
        <g transform="translate(297,864) scale(4.635)"><rect width="6" height="6"></rect></g>
        <g transform="translate(324,864) scale(4.635)"><rect width="6" height="6"></rect></g>
        <g transform="translate(351,864) scale(4.635)"><rect width="6" height="6"></rect></g>
        <g transform="translate(405,864) scale(4.635)"><rect width="6" height="6"></rect></g>
        <g transform="translate(432,864) scale(4.635)"><rect width="6" height="6"></rect></g>
        <g transform="translate(459,864) scale(4.635)"><rect width="6" height="6"></rect></g>
        <g transform="translate(486,864) scale(4.635)"><rect width="6" height="6"></rect></g>
        <g transform="translate(621,864) scale(4.635)"><rect width="6" height="6"></rect></g>
        <g transform="translate(648,864) scale(4.635)"><rect width="6" height="6"></rect></g>
        <g transform="translate(675,864) scale(4.635)"><rect width="6" height="6"></rect></g>
        <g transform="translate(702,864) scale(4.635)"><rect width="6" height="6"></rect></g>
        <g transform="translate(729,864) scale(4.635)"><rect width="6" height="6"></rect></g>
        <g transform="translate(756,864) scale(4.635)"><rect width="6" height="6"></rect></g>
        <g transform="translate(864,864) scale(4.635)"><rect width="6" height="6"></rect></g>
        <g transform="translate(351,891) scale(4.635)"><rect width="6" height="6"></rect></g>
        <g transform="translate(378,891) scale(4.635)"><rect width="6" height="6"></rect></g>
        <g transform="translate(459,891) scale(4.635)"><rect width="6" height="6"></rect></g>
        <g transform="translate(513,891) scale(4.635)"><rect width="6" height="6"></rect></g>
        <g transform="translate(621,891) scale(4.635)"><rect width="6" height="6"></rect></g>
        <g transform="translate(648,891) scale(4.635)"><rect width="6" height="6"></rect></g>
        <g transform="translate(729,891) scale(4.635)"><rect width="6" height="6"></rect></g>
        <g transform="translate(783,891) scale(4.635)"><rect width="6" height="6"></rect></g>
        <g transform="translate(864,891) scale(4.635)"><rect width="6" height="6"></rect></g>
        <g transform="translate(297,918) scale(4.635)"><rect width="6" height="6"></rect></g>
        <g transform="translate(324,918) scale(4.635)"><rect width="6" height="6"></rect></g>
        <g transform="translate(405,918) scale(4.635)"><rect width="6" height="6"></rect></g>
        <g transform="translate(459,918) scale(4.635)"><rect width="6" height="6"></rect></g>
        <g transform="translate(486,918) scale(4.635)"><rect width="6" height="6"></rect></g>
        <g transform="translate(513,918) scale(4.635)"><rect width="6" height="6"></rect></g>
        <g transform="translate(621,918) scale(4.635)"><rect width="6" height="6"></rect></g>
        <g transform="translate(675,918) scale(4.635)"><rect width="6" height="6"></rect></g>
        <g transform="translate(702,918) scale(4.635)"><rect width="6" height="6"></rect></g>
        <g transform="translate(891,918) scale(4.635)"><rect width="6" height="6"></rect></g>
</g><g><g transform="translate(54,54)" fill="#000000"><g transform="scale(13.5)"><path d="M0,0v14h14V0H0z M12,12H2V2h10V12z"></path></g></g>
    <g transform="translate(756,54)" fill="#000000"><g transform="scale(13.5)"><path d="M0,0v14h14V0H0z M12,12H2V2h10V12z"></path></g></g>
    <g transform="translate(54,756)" fill="#000000"><g transform="scale(13.5)"><path d="M0,0v14h14V0H0z M12,12H2V2h10V12z"></path></g></g>
    <g transform="translate(108,108)" fill="#000000"><g transform="scale(13.5)"><rect width="6" height="6"></rect></g></g>
    <g transform="translate(810,108)" fill="#000000"><g transform="scale(13.5)"><rect width="6" height="6"></rect></g></g>
    <g transform="translate(108,810)" fill="#000000"><g transform="scale(13.5)"><rect width="6" height="6"></rect></g></g></g>
</svg>